<?xml version="1.0" encoding="utf-8"?>
<!-- Svg Vector Icons : http://www.onlinewebfonts.com/icon -->
<!DOCTYPE svg PUBLIC "-//W3C//DTD SVG 1.1//EN" "http://www.w3.org/Graphics/SVG/1.1/DTD/svg11.dtd">
<svg version="1.1" xmlns="http://www.w3.org/2000/svg" xmlns:xlink="http://www.w3.org/1999/xlink" x="0px" y="0px" viewBox="0 0 1000 1000" enable-background="new 0 0 1000 1000" xml:space="preserve">
<metadata> Svg Vector Icons : http://www.onlinewebfonts.com/icon </metadata>
<g><path d="M806.3,132.5H193.8C92.7,132.5,10,215.2,10,316.3v367.5c0,101.1,82.7,183.8,183.8,183.8h612.5c101.1,0,183.8-82.7,183.8-183.8V316.3C990,215.2,907.3,132.5,806.3,132.5z M928.8,683.8c0,32.5-12.8,63.2-36,86.5c-23.2,23.2-53.9,36-86.5,36H193.8c-32.5,0-63.2-12.8-86.5-36c-23.2-23.2-36-53.9-36-86.5V316.3c0-32.5,12.8-63.2,36-86.5s53.9-36,86.5-36h612.5c32.5,0,63.2,12.8,86.5,36c23.2,23.2,36,53.9,36,86.5V683.8z M377.5,745l306.3-245L377.5,255V745z" fill="#fff"/></g>
</svg>